<svg width="24" height="24" viewBox="0 0 24 24" fill="none" xmlns="http://www.w3.org/2000/svg">
<path d="M14.0171 4.7068C13.7175 4.42142 13.2424 4.43267 12.957 4.73267C12.6712 5.03267 12.6832 5.50742 12.9829 5.79317L18.7361 11.2498H3.75C3.336 11.2498 3 11.5858 3 11.9998C3 12.4138 3.336 12.7498 3.75 12.7498H18.7121L12.9829 18.2068C12.6829 18.4925 12.6712 18.9673 12.957 19.2673C13.1044 19.4218 13.302 19.4998 13.5 19.4998C13.686 19.4998 13.872 19.4312 14.0171 19.2928L20.5605 13.0603C20.844 12.7772 21 12.4007 21 11.9998C21 11.5989 20.844 11.2224 20.5474 10.9265L14.0171 4.7068Z" fill="white"/>
</svg>
